<svg xmlns="http://www.w3.org/2000/svg" viewBox="0 0 100 100">
  <defs>
    <style>
      .cls-1 {
        fill: #000;
      }
    </style>
  </defs>
    <g id="twiiter-b" data-name="twiiter-b">
      <path
      class="cls-1"
      d="M0,0V100H100V0ZM74.9,37.2v1.7c0,17-12.9,36.5-36.5,36.5a35.86,35.86,0,0,1-19.5-5.7c1,.1,2,.2,3,.2a25.37,25.37,0,0,0,15.9-5.5,12.89,12.89,0,0,1-12-8.9,12.65,12.65,0,0,0,5.8-.2A12.93,12.93,0,0,1,21.3,42.7v-.2a12.05,12.05,0,0,0,5.8,1.6,12.74,12.74,0,0,1-4-17.1A35.84,35.84,0,0,0,49.4,40.3a12.67,12.67,0,0,1,3.7-12.2,12.83,12.83,0,0,1,18.2.5,26.24,26.24,0,0,0,8.2-3.1,12.38,12.38,0,0,1-5.6,7.1,26.11,26.11,0,0,0,7.4-2A26.74,26.74,0,0,1,74.9,37.2Z"/>
    </g>
</svg>
